<?xml version="1.0" standalone="no"?><!DOCTYPE svg PUBLIC "-//W3C//DTD SVG 1.1//EN" "http://www.w3.org/Graphics/SVG/1.1/DTD/svg11.dtd"><svg t="1713589689870" class="icon" viewBox="0 0 1024 1024" version="1.1" xmlns="http://www.w3.org/2000/svg" p-id="14923" xmlns:xlink="http://www.w3.org/1999/xlink" width="200" height="200"><path d="M511.339326 570.154078l-31.743492-81.406698-31.743492 81.406698h63.486984z m61.592614 149.860002l-36.965808-89.700965h-112.638198l-35.429833 89.700965H317.34563L450.207504 393.7217H507.396989l136.087423 326.343579H572.93194z" fill="#333303" p-id="14924"></path><path d="M641.334046 720.01408h64.869362V393.7217h-64.869362z" fill="#333303" p-id="14925"></path><path d="M631.299007 118.11651a460.792627 460.792627 0 1 0 325.780387 564.317371l-98.916817-26.469976a358.394266 358.394266 0 1 1-253.435945-438.930578l26.521175-98.916817z" fill="#333303" p-id="14926"></path><path d="M844.799591 76.798771V0h51.19918v76.798771H972.797543v51.199181h-76.798772V204.796723h-51.19918V127.997952H768.000819v-51.199181h76.798772z" fill="#333303" p-id="14927"></path></svg>