<?xml version="1.0" standalone="no"?><!DOCTYPE svg PUBLIC "-//W3C//DTD SVG 1.1//EN" "http://www.w3.org/Graphics/SVG/1.1/DTD/svg11.dtd"><svg t="1713590607142" class="icon" viewBox="0 0 1024 1024" version="1.1" xmlns="http://www.w3.org/2000/svg" p-id="32054" xmlns:xlink="http://www.w3.org/1999/xlink" width="200" height="200"><path d="M717.954 156.606c-64.832 0-106.426-11.606-173.206-11.606-215.762 0-316.39 122.99-316.39 247.931 0 73.607 34.834 97.806 103.539 97.806-4.836-10.643-13.544-22.272-13.544-74.57 0-146.226 55.138-188.844 125.79-191.757 0 0-57.956 568.69-226.143 636.905V879h226.74l77.366-367h141.695l31.557-91.75h-153.91l37.194-176.458c42.58 8.716 84.174 17.432 119.97 17.432 44.504 0 85.136-13.556 107.388-116.201-27.088 8.716-56.123 11.606-88.046 11.606v-0.023z" p-id="32055"></path></svg>