<?xml version="1.0" standalone="no"?><!DOCTYPE svg PUBLIC "-//W3C//DTD SVG 1.1//EN" "http://www.w3.org/Graphics/SVG/1.1/DTD/svg11.dtd"><svg t="1713590319261" class="icon" viewBox="0 0 1074 1024" version="1.1" xmlns="http://www.w3.org/2000/svg" p-id="24503" xmlns:xlink="http://www.w3.org/1999/xlink" width="209.765625" height="200"><path d="M550.566234 146.285714h-23.937663c-13.298701 0-23.937662-10.638961-23.937662-23.937662V23.937662c0-13.298701 10.638961-23.937662 23.937662-23.937662h23.937663c13.298701 0 23.937662 10.638961 23.937662 23.937662v98.41039c0 13.298701-10.638961 23.937662-23.937662 23.937662m-279.272728 106.389611l-18.618181 18.618181c-7.979221 10.638961-21.277922 10.638961-31.916883 2.659741l-2.659741-2.659741-69.153246-69.153246c-7.979221-10.638961-7.979221-23.937662 0-34.576624l15.958441-15.958441c7.979221-10.638961 21.277922-10.638961 31.916883-2.65974l2.65974 2.65974 71.812987 66.493506c7.979221 10.638961 7.979221 23.937662 0 34.576624z m654.296104 654.296104l-15.958441 15.958441c-7.979221 10.638961-21.277922 10.638961-31.916883 2.65974l-2.659741-2.65974-71.812987-66.493506c-10.638961-7.979221-10.638961-21.277922-2.65974-31.916883l2.65974-2.659741 15.958442-15.958441c7.979221-10.638961 21.277922-10.638961 31.916883-2.659741l2.65974 2.659741 69.153247 69.153246c10.638961 7.979221 10.638961 21.277922 2.65974 31.916884M146.285714 523.968831v23.937663c0 13.298701-10.638961 23.937662-23.937662 23.937662H23.937662c-13.298701 0-23.937662-10.638961-23.937662-23.937662v-23.937663c0-13.298701 10.638961-23.937662 23.937662-23.937662h98.41039c13.298701 0 23.937662 10.638961 23.937662 23.937662m928.249351 0v23.937663c0 13.298701-10.638961 23.937662-23.937662 23.937662h-98.41039c-13.298701 0-23.937662-10.638961-23.937662-23.937662v-23.937663c0-13.298701 10.638961-23.937662 23.937662-23.937662h98.41039c13.298701 0 23.937662 10.638961 23.937662 23.937662M252.675325 803.241558l15.958441 15.958442c10.638961 7.979221 10.638961 21.277922 2.65974 31.916883l-2.65974 2.65974-69.153247 69.153247c-7.979221 10.638961-21.277922 10.638961-31.916883 2.65974l-2.65974-2.65974-15.958441-15.958441c-10.638961-7.979221-10.638961-21.277922-2.659741-31.916884l2.659741-2.65974 69.153246-69.153247c10.638961-7.979221 23.937662-7.979221 34.576624 0zM906.971429 148.945455l15.958441 15.958441c10.638961 7.979221 10.638961 21.277922 2.65974 31.916883l-2.65974 2.65974-66.493506 71.812987c-7.979221 10.638961-21.277922 10.638961-31.916883 2.659741l-2.659741-2.659741-18.618182-18.618181c-10.638961-7.979221-10.638961-21.277922-2.65974-31.916883l2.65974-2.659741 69.153247-69.153246c10.638961-7.979221 23.937662-7.979221 34.576624 0z m-53.194806 388.322077c0-175.542857-143.625974-316.509091-316.509091-316.50909-175.542857 0-316.509091 143.625974-316.50909 316.50909 0 132.987013 82.451948 250.015584 207.45974 295.231169v140.966234c0 26.597403 21.277922 47.875325 47.875324 47.875325h122.348052c26.597403 0 47.875325-21.277922 47.875325-47.875325v-140.966234c125.007792-42.555844 207.45974-162.244156 207.45974-295.231169z m-279.272727 242.036364v172.883117h-74.472727v-172.883117c-132.987013-21.277922-226.077922-146.285714-204.8-279.272727 21.277922-132.987013 146.285714-226.077922 279.272727-204.8 132.987013 21.277922 226.077922 146.285714 204.8 279.272727-15.958442 106.38961-98.41039 188.841558-204.8 204.8z" p-id="24504"></path></svg>