<?xml version="1.0" standalone="no"?><!DOCTYPE svg PUBLIC "-//W3C//DTD SVG 1.1//EN" "http://www.w3.org/Graphics/SVG/1.1/DTD/svg11.dtd"><svg t="1713590455412" class="icon" viewBox="0 0 1024 1024" version="1.1" xmlns="http://www.w3.org/2000/svg" p-id="27597" xmlns:xlink="http://www.w3.org/1999/xlink" width="200" height="200"><path d="M511.317333 20.48c-136.533333 0-253.269333 47.786667-348.842666 143.36s-143.36 211.626667-143.36 348.16c0 135.850667 47.786667 252.586667 143.36 348.16s212.309333 143.36 348.842666 143.36c25.258667 0 46.421333-8.192 63.488-24.576 16.384-16.384 24.576-38.229333 24.576-62.805333 0-21.845333-8.874667-41.642667-24.576-58.026667-10.922667-10.922667-18.432-26.624-18.432-50.517333 0-19.114667 7.509333-38.229333 21.845334-51.2 13.653333-14.336 32.085333-22.528 51.882666-21.845334h95.573334c75.776 0 141.312-26.624 195.925333-80.554666 54.613333-53.248 81.92-118.784 81.92-194.56 0-121.514667-49.152-225.28-145.408-310.613334C761.856 62.805333 645.802667 20.48 511.317333 20.48z m0 0" fill="#FFFFFF" p-id="27598"></path><path d="M511.317333 0.682667c139.264 0 260.096 44.373333 359.765334 133.12 101.034667 88.746667 151.552 197.973333 151.552 324.949333 0 81.237333-29.354667 150.869333-87.381334 208.213333-58.026667 56.661333-128.341333 86.016-209.578666 86.016h-95.573334c-14.336 0-27.989333 5.461333-37.546666 16.384-10.24 9.557333-16.384 23.210667-16.384 37.546667 0 17.066667 4.096 28.672 12.288 36.181333 19.797333 19.797333 30.72 44.373333 30.72 71.68 0 30.72-10.24 56.661333-30.72 77.141334s-46.421333 30.72-77.141334 30.72c-141.994667 0-263.509333-49.834667-362.496-148.821334C49.834667 774.144 0 653.312 0 511.317333c0-141.312 49.834667-262.826667 149.504-361.813333C248.490667 50.517333 370.005333 0.682667 511.317333 0.682667z m0 38.912c-131.072 0-243.029333 45.738667-334.506666 137.898666C85.333333 268.970667 38.912 380.245333 38.912 511.317333s45.738667 242.346667 137.898667 333.824c92.16 92.16 203.434667 137.898667 334.506666 137.898667 20.48 0 36.864-6.144 49.152-19.114667C573.44 951.637333 580.266667 935.253333 580.266667 914.773333c0-14.336-4.778667-28.672-14.336-39.594666l-4.778667-4.778667c-16.384-16.384-23.893333-38.229333-23.893333-63.488 0-25.258667 10.24-49.834667 26.624-64.853333 15.701333-16.384 36.864-26.624 59.392-28.672h103.082666c70.997333 0 131.072-24.576 181.589334-74.410667 50.517333-49.834667 75.776-109.909333 75.776-180.224 0-115.370667-45.738667-214.357333-138.581334-295.594667C752.981333 81.237333 641.706667 39.594667 511.317333 39.594667z m0 0" fill="#5D6D7E" p-id="27599"></path><path d="M158.378667 488.789333c-15.018667-15.018667-22.528-34.133333-22.528-58.026666s8.192-43.008 23.893333-58.026667c15.018667-15.018667 35.498667-23.210667 56.661333-22.528 21.845333 0 40.96 7.509333 56.661334 22.528 15.701333 15.018667 23.893333 34.133333 23.893333 58.026667s-8.192 43.008-23.893333 58.026666c-15.018667 15.018667-35.498667 23.210667-56.661334 22.528-21.845333 0.682667-42.325333-7.509333-58.026666-22.528z m0 0" fill="#E3725D" p-id="27600"></path><path d="M319.488 274.432c-15.018667-15.701333-23.210667-36.181333-22.528-58.026667 0-21.845333 8.192-40.96 23.893333-56.661333 15.018667-15.701333 35.498667-23.893333 56.661334-23.893333 21.162667 0 41.642667 8.192 56.661333 23.893333 15.701333 15.701333 23.893333 34.816 23.893333 56.661333 0 21.845333-8.192 40.96-23.893333 56.661334-15.018667 15.701333-35.498667 23.893333-56.661333 23.893333-21.162667 0.682667-42.325333-7.509333-58.026667-22.528z m0 0" fill="#EEBE56" p-id="27601"></path><path d="M587.093333 274.432c-15.018667-15.701333-23.210667-36.181333-22.528-58.026667 0-21.845333 8.192-40.96 23.893334-56.661333 15.018667-15.701333 35.498667-23.893333 56.661333-23.893333 21.845333 0 40.96 8.192 56.661333 23.893333 15.701333 15.701333 23.893333 34.816 23.893334 56.661333 0 21.162667-8.192 41.642667-23.893334 56.661334-15.018667 15.701333-35.498667 23.893333-56.661333 23.893333-21.162667 0.682667-42.325333-7.509333-58.026667-22.528z m0 0" fill="#808FA1" p-id="27602"></path><path d="M748.885333 488.789333c-15.018667-15.018667-22.528-34.133333-22.528-58.026666s8.192-43.008 23.893334-58.026667c15.018667-15.018667 35.498667-23.210667 56.661333-22.528 21.845333 0 40.96 7.509333 56.661333 22.528 15.701333 15.018667 23.893333 34.133333 23.893334 58.026667s-8.192 43.008-23.893334 58.026666c-15.018667 15.018667-35.498667 23.210667-56.661333 22.528-21.162667 0.682667-42.325333-7.509333-58.026667-22.528z m0 0" fill="#65C1C2" p-id="27603"></path></svg>