<?xml version="1.0" standalone="no"?><!DOCTYPE svg PUBLIC "-//W3C//DTD SVG 1.1//EN" "http://www.w3.org/Graphics/SVG/1.1/DTD/svg11.dtd"><svg t="1713590731168" class="icon" viewBox="0 0 1024 1024" version="1.1" xmlns="http://www.w3.org/2000/svg" p-id="33923" xmlns:xlink="http://www.w3.org/1999/xlink" width="200" height="200"><path d="M882.645333 261.888L736 387.584v248.832l146.645333 125.696a53.333333 53.333333 0 0 0 88.021334-40.533333V302.421333a53.333333 53.333333 0 0 0-88.021334-40.490666z m24.021334 63.616v372.949333l-106.666667-91.477333V416.981333l106.666667-91.477333z" fill="#212121" p-id="33924"></path><path d="M682.666667 138.666667H170.666667A117.333333 117.333333 0 0 0 53.333333 256v512A117.333333 117.333333 0 0 0 170.666667 885.333333h512A117.333333 117.333333 0 0 0 800 768V256A117.333333 117.333333 0 0 0 682.666667 138.666667zM170.666667 202.666667h512c29.44 0 53.333333 23.893333 53.333333 53.333333v512c0 29.44-23.893333 53.333333-53.333333 53.333333H170.666667c-29.44 0-53.333333-23.893333-53.333334-53.333333V256c0-29.44 23.893333-53.333333 53.333334-53.333333z" fill="#212121" p-id="33925"></path><path d="M298.666667 266.666667a117.333333 117.333333 0 1 0 0 234.666666 117.333333 117.333333 0 0 0 0-234.666666z m0 64a53.333333 53.333333 0 1 1 0 106.666666 53.333333 53.333333 0 0 1 0-106.666666z" fill="#212121" p-id="33926"></path></svg>