<?xml version="1.0" encoding="UTF-8"?>
<!-- Generated by Pixelmator Pro 3.6.8 -->
<svg width="960" height="960" viewBox="0 0 960 960" xmlns="http://www.w3.org/2000/svg">
    <g id="color">
        <path id="path1" fill="#fcea2b" stroke="none" d="M 369.211304 20.181702 L 594.61322 20.181702 C 620.230286 20.181702 640.99707 40.963135 640.99707 66.598328 L 640.99707 66.598328 C 640.99707 92.233521 620.230286 113.014954 594.61322 113.014954 L 369.211304 113.014954 C 343.594208 113.014954 322.827484 92.233521 322.827484 66.598328 L 322.827484 66.598328 C 322.827484 40.963135 343.594208 20.181702 369.211304 20.181702 Z"/>
        <path id="path2" fill="#fcea2b" stroke="none" d="M 257.883759 76.549011 L 699.857422 76.549011 C 774.834778 76.549011 835.616028 137.373169 835.616028 212.403625 L 835.616028 705.983887 C 835.616028 721.549255 823.006653 734.167542 807.452271 734.167542 L 150.298279 734.167542 C 134.743881 734.167542 122.134537 721.549255 122.134537 705.983887 L 122.134537 212.394226 C 122.134537 137.369019 182.91153 76.549011 257.883759 76.549011 Z"/>
        <path id="path3" fill="#f4aa41" stroke="none" d="M 122.134537 546.27655 L 835.616028 546.27655 L 835.616028 734.167542 L 122.134537 734.167542 Z"/>
        <path id="path4" fill="#92d3f5" stroke="none" d="M 178.462021 208.072693 L 760.512695 208.072693 L 760.512695 452.331055 L 178.462021 452.331055 Z"/>
        <path id="path5" fill="#ffffff" stroke="none" d="M 178.462021 602.643799 L 309.892822 602.643799 L 309.892822 659.011108 L 178.462021 659.011108 Z"/>
        <path id="path6" fill="#ffffff" stroke="none" d="M 629.081909 602.643799 L 760.512695 602.643799 L 760.512695 659.011108 L 629.081909 659.011108 Z"/>
        <path id="path7" fill="#3f3f3f" stroke="none" d="M 152.572021 734.167542 L 805.178467 734.167542 C 832.358276 734.167542 854.391846 756.216614 854.391846 783.415588 L 854.391846 835.232178 C 854.391846 862.431152 832.358276 884.480347 805.178467 884.480347 L 152.572021 884.480347 C 125.39225 884.480347 103.358704 862.431152 103.358704 835.232178 L 103.358704 783.415588 C 103.358704 756.216614 125.39225 734.167542 152.572021 734.167542 Z"/>
        <path id="path8" fill="#3f3f3f" stroke="none" d="M 393.965332 62.630066 L 545.009399 62.630066 C 559.872131 62.630066 571.920776 74.686829 571.920776 89.55957 L 571.920776 89.55957 C 571.920776 104.432312 559.872131 116.489014 545.009399 116.489014 L 393.965332 116.489014 C 379.10257 116.489014 367.053925 104.432312 367.053925 89.55957 L 367.053925 89.55957 C 367.053925 74.686829 379.10257 62.630066 393.965332 62.630066 Z"/>
        <g id="aigcx-logo-light-1">
            <g id="SvgjsG67313"/>
            <g id="SvgjsG67314">
                <g id="g1">
                    <path id="path9" fill="#000000" stroke="none" d="M 632.57373 322.304382 C 639.08728 330.853455 645.193787 339.402588 650.486084 348.358765 C 664.327454 371.563477 652.928711 380.926758 633.794983 361.79303 C 626.467163 354.465271 619.546509 346.730347 613.032898 338.588379 C 602.855408 346.730347 592.677917 354.465271 582.093323 361.79303 C 554.817627 380.926758 547.489807 371.563477 571.508728 348.358765 C 580.464905 339.402588 590.235291 330.853455 600.412781 322.304382 C 593.89917 314.162354 587.792725 305.206177 582.500427 296.249939 C 568.658997 273.045288 580.0578 263.681946 599.191528 282.815674 C 606.519287 290.143494 613.440002 298.285461 619.953613 306.020386 C 630.131104 298.285461 640.308594 290.143494 650.893188 282.815674 C 678.168884 263.681946 685.496704 273.045288 661.477783 296.249939 C 652.521606 305.206177 642.344055 314.162354 632.57373 322.304382 Z"/>
                </g>
            </g>
            <g id="SvgjsG67315">
                <path id="path10" fill="#000000" stroke="none" d="M 340.386719 291.928833 L 354.48175 358.57019 C 352.226532 361.953003 347.828888 362.629578 343.995026 362.629578 C 337.116669 362.629578 333.959381 359.810547 333.170044 354.398071 L 331.704163 344.362427 L 307.460693 344.362427 L 302.612 360.261597 C 299.116425 361.953003 295.733612 362.629578 292.689087 362.629578 C 285.472443 362.629578 282.766174 356.653259 285.021393 350.451477 L 309.1521 285.614258 C 314.451843 283.471802 319.4133 282.45697 324.825775 282.45697 C 334.974213 282.45697 339.033569 285.276001 340.386719 291.928833 Z M 323.472656 297.003052 L 322.908844 297.003052 L 312.083862 330.04187 L 329.110687 330.04187 Z M 373.763763 362.629578 C 366.096069 362.629578 362.487732 359.47229 362.938782 353.044922 L 367.787445 284.599426 C 368.351257 284.035645 372.636169 282.45697 377.033813 282.45697 C 384.36322 282.45697 388.08432 285.501526 387.520508 292.492676 L 382.559052 360.487122 C 381.656982 361.163696 378.048645 362.629578 373.763763 362.629578 Z M 434.090546 319.32959 L 461.265747 319.32959 L 457.995728 361.501953 C 457.093628 362.855103 454.612915 363.869934 451.906647 363.869934 C 447.283508 363.869934 445.930359 361.276428 445.930359 355.863953 L 445.930359 352.48114 C 442.322052 360.036072 435.781921 363.757202 425.746277 363.757202 C 405.900452 363.757202 396.654114 349.211121 396.654114 327.448364 C 396.654114 299.258301 412.102264 281.216614 434.541565 281.216614 C 449.651459 281.216614 460.138153 289.335388 460.138153 300.273132 C 460.138153 307.940796 454.951202 312.225708 447.734528 312.225708 C 445.704834 312.225708 444.351715 312.000183 442.885834 311.323608 C 443.224121 310.647034 443.336853 309.293945 443.336853 308.053589 C 443.336853 301.626221 440.179596 298.243408 434.090546 298.243408 C 424.618652 298.243408 417.514771 306.925964 417.514771 326.546265 C 417.514771 341.092346 421.461395 347.519653 428.903564 347.519653 C 435.105377 347.519653 439.615784 343.009277 441.081665 334.213989 L 431.046021 334.213989 C 429.805634 331.846008 429.016327 329.59082 429.016327 326.997314 C 429.016327 322.59967 431.046021 319.32959 434.090546 319.32959 Z M 501.408447 363.757202 C 481.562622 363.757202 469.610046 351.240784 469.610046 326.546265 C 469.610046 299.70929 484.832672 281.329407 507.835785 281.329407 C 522.269104 281.329407 532.192017 290.124695 532.192017 302.190063 C 532.192017 311.210876 526.779541 315.834045 518.773499 315.834045 C 516.631104 315.834045 515.165222 315.608521 514.15033 315.044739 C 514.488647 313.917114 514.601379 313.015015 514.601379 311.323608 C 514.601379 302.753845 511.218597 298.807251 505.693329 298.807251 C 496.785278 298.807251 490.357941 308.730164 490.357941 324.854858 C 490.357941 339.964722 495.995941 346.166565 504.114685 346.166565 C 510.091003 346.166565 516.180054 343.009277 519.675598 337.145752 C 524.86261 337.935059 528.245422 341.881653 528.245422 347.294189 C 528.245422 356.991577 515.954529 363.757202 501.408447 363.757202 Z"/>
            </g>
        </g>
    </g>
    <g id="line">
        <path id="path11" fill="none" stroke="#000000" stroke-width="37.564945" stroke-linecap="round" stroke-linejoin="round" d="M 152.572021 734.167542 L 805.178467 734.167542 C 832.358276 734.167542 854.391846 756.216614 854.391846 783.415588 L 854.391846 835.232178 C 854.391846 862.431152 832.358276 884.480347 805.178467 884.480347 L 152.572021 884.480347 C 125.39225 884.480347 103.358704 862.431152 103.358704 835.232178 L 103.358704 783.415588 C 103.358704 756.216614 125.39225 734.167542 152.572021 734.167542 Z"/>
        <path id="path12" fill="#000000" stroke="none" d="M 178.462021 884.480347 L 216.013672 884.480347 C 236.752899 884.480347 253.565338 901.304565 253.565338 922.058533 L 253.565338 922.058533 C 253.565338 942.812378 236.752899 959.636719 216.013672 959.636719 L 178.462021 959.636719 C 157.722794 959.636719 140.910355 942.812378 140.910355 922.058533 L 140.910355 922.058533 C 140.910355 901.304565 157.722794 884.480347 178.462021 884.480347 Z"/>
        <path id="path13" fill="#000000" stroke="none" d="M 741.736877 884.480347 L 779.288513 884.480347 C 800.02771 884.480347 816.84021 901.304565 816.84021 922.058533 L 816.84021 922.058533 C 816.84021 942.812378 800.02771 959.636719 779.288513 959.636719 L 741.736877 959.636719 C 720.997681 959.636719 704.185242 942.812378 704.185242 922.058533 L 704.185242 922.058533 C 704.185242 901.304565 720.997681 884.480347 741.736877 884.480347 Z"/>
        <path id="path14" fill="none" stroke="#000000" stroke-width="37.564945" stroke-linecap="round" stroke-linejoin="round" d="M 103.358704 302.018188 L 47.031219 302.018188"/>
        <path id="path15" fill="none" stroke="#000000" stroke-width="37.564945" stroke-linecap="round" stroke-linejoin="round" d="M 47.031219 245.650879 L 47.031219 358.385498"/>
        <path id="path16" fill="none" stroke="#000000" stroke-width="37.564945" stroke-linecap="round" stroke-linejoin="round" d="M 854.391846 302.018188 L 910.719299 302.018188"/>
        <path id="path17" fill="none" stroke="#000000" stroke-width="37.564945" stroke-linecap="round" stroke-linejoin="round" d="M 910.719299 245.650879 L 910.719299 358.385498"/>
        <path id="path18" fill="none" stroke="#000000" stroke-width="37.564945" stroke-linecap="round" stroke-linejoin="round" d="M 632.003479 76.549011 L 699.86676 76.549011 C 774.749329 76.773987 835.396423 137.468079 835.616028 212.403625 L 835.616028 705.993286 C 835.570679 721.539795 822.987854 734.13147 807.452271 734.17688 L 150.298279 734.17688 C 134.76268 734.13147 122.179909 721.539795 122.134537 705.993286 L 122.134537 212.403625 C 122.356209 137.47052 183.003555 76.780273 257.883759 76.558472 L 306.96756 76.558472"/>
        <path id="path19" fill="none" stroke="#000000" stroke-width="37.564945" stroke-linecap="round" stroke-linejoin="round" d="M 760.512695 226.861816 L 760.512695 448.573212 L 197.237854 448.573212"/>
        <path id="path20" fill="none" stroke="#000000" stroke-width="37.564945" stroke-linecap="round" stroke-linejoin="round" d="M 197.237854 659.005493 L 309.892822 659.005493 L 309.892822 621.427246"/>
        <path id="path21" fill="none" stroke="#000000" stroke-width="37.564945" stroke-linecap="round" stroke-linejoin="round" d="M 647.857727 659.005493 L 760.512695 659.005493 L 760.512695 621.427246"/>
        <path id="path22" fill="none" stroke="#000000" stroke-width="37.564945" stroke-linecap="round" d="M 403.771973 602.643799 L 572.754395 602.643799"/>
        <path id="path23" fill="none" stroke="#000000" stroke-width="37.564945" stroke-linecap="round" d="M 403.771973 659.011108 L 572.754395 659.011108"/>
        <path id="path24" fill="none" stroke="#000000" stroke-width="37.564945" stroke-linecap="round" stroke-linejoin="round" d="M 306.971313 76.549011 L 306.971313 67.547241 C 307.047607 41.419617 328.194214 20.258118 354.303284 20.181702 L 584.671448 20.181702 C 610.780518 20.258118 631.927124 41.419617 632.003479 67.547241 L 632.003479 76.549011"/>
    </g>
</svg>
